<svg width="263" height="170" viewBox="0 0 263 170" fill="none" xmlns="http://www.w3.org/2000/svg">
<path d="M88.9317 4.79153H71.9865C71.9865 4.79153 67.66 -0.274836 53.2386 0.0870452C38.8171 0.448926 35.9327 4.79153 35.9327 4.79153C35.9327 4.79153 21.6915 14.3814 18.4467 26.3235C18.4467 26.3235 0.960632 78.9775 0.600097 120.232C0.239562 161.487 16.1032 167.277 24.3955 168.362C32.6879 169.448 47.4699 168.001 61.8914 131.45L68.0206 110.099C68.0206 110.099 69.1022 97.4334 82.0815 105.395C95.0609 113.356 106.598 101.052 106.598 101.052H155.271C155.271 101.052 171.495 111.185 186.277 103.224C186.277 103.224 192.045 95.624 197.453 121.318C197.453 121.318 214.038 174.153 239.636 168.724C265.234 163.296 262.35 119.146 262.35 119.146C262.35 119.146 258.925 51.6553 244.864 27.7711C244.864 27.7711 231.344 2.9821 222.33 1.89646C222.33 1.89646 202.861 -1.72235 195.29 1.53457L190.964 5.15338L88.9317 4.79153Z" fill="#E6E6E6"/>
</svg>
